<svg width="178" height="142" viewBox="0 0 178 142" fill="none" xmlns="http://www.w3.org/2000/svg">
<path d="M15.9527 40.5646C18.2902 33.776 25.6883 30.1677 32.4768 32.5052L165.205 78.2073C171.994 80.5447 175.602 87.9428 173.265 94.7314L161.544 128.77C159.207 135.559 151.808 139.167 145.02 136.829L12.2916 91.1274C5.50301 88.7899 1.89474 81.3918 4.23222 74.6032L15.9527 40.5646Z" fill="white"/>
<path d="M69.4279 40.0442L47.8864 50.8118C42.0233 53.7425 35.1175 52.1349 31.9251 46.2636C28.7941 40.505 31.3575 34.3946 37.3354 31.4065L61.5503 19.3027C65.2563 17.4502 69.8326 18.889 71.8118 22.529C73.7909 26.169 72.4008 30.5902 68.6948 32.4427L44.0547 44.7591C42.2075 45.6824 39.9104 44.9601 38.9239 43.1459C37.9375 41.3316 38.6353 39.1124 40.4824 38.1891L62.4491 27.209" stroke="black" stroke-width="2" stroke-linecap="round"/>
<path d="M30.7869 60.1508L33.3965 61.0494L28.8386 74.2867L26.2289 73.3881L30.7869 60.1508ZM39.7794 67.1816C40.8132 67.5375 41.5447 68.1772 41.9742 69.1007C42.4162 70.0284 42.4267 71.1038 42.0056 72.3266L40.0066 78.1321L37.5672 77.2922L39.462 71.7892C39.679 71.1589 39.6738 70.6212 39.4463 70.1762C39.2231 69.7187 38.8278 69.3922 38.2605 69.1969C37.6302 68.9798 37.0586 69.0016 36.5458 69.2622C36.0331 69.5228 35.6421 70.0439 35.373 70.8255L33.6149 75.9313L31.1755 75.0913L34.4311 65.6361L36.8706 66.4761L36.5059 67.5351C37.4023 66.8566 38.4935 66.7388 39.7794 67.1816ZM53.8145 68.0799L56.254 68.9199L51.696 82.1571L49.2566 81.3172L49.6408 80.2014C48.6053 80.8743 47.4257 80.9829 46.1019 80.5271C44.8287 80.0886 43.9031 79.2341 43.3253 77.9634C42.7645 76.6845 42.725 75.3453 43.2068 73.9459C43.6887 72.5466 44.5421 71.5219 45.7671 70.872C47.009 70.2138 48.2667 70.1039 49.5399 70.5424C50.8637 70.9982 51.7264 71.8099 52.1281 72.9777L53.8145 68.0799ZM45.7196 76.9687C46.0546 77.634 46.6003 78.0969 47.3567 78.3574C48.1131 78.6178 48.8218 78.5868 49.4828 78.2645C50.1481 77.9295 50.6153 77.3712 50.8844 76.5896C51.1536 75.8079 51.1269 75.0866 50.8046 74.4257C50.4865 73.7521 49.9493 73.2851 49.1929 73.0246C48.4365 72.7642 47.7193 72.7993 47.0414 73.1299C46.3804 73.4523 45.9154 74.0043 45.6463 74.7859C45.3771 75.5675 45.4016 76.2951 45.7196 76.9687ZM58.7836 72.7522C58.3802 72.6133 58.0771 72.3468 57.8744 71.9527C57.6886 71.5502 57.6652 71.1473 57.8041 70.7439C57.943 70.3405 58.2095 70.0374 58.6037 69.8347C59.0104 69.6363 59.4155 69.6066 59.8189 69.7455C60.235 69.8887 60.5359 70.1616 60.7216 70.564C60.92 70.9707 60.9498 71.3758 60.8109 71.7792C60.672 72.1826 60.3991 72.4835 59.9924 72.6819C59.6026 72.872 59.1997 72.8955 58.7836 72.7522ZM53.927 82.9253L57.1827 73.4701L59.6221 74.3101L56.3664 83.7653L53.927 82.9253ZM69.0408 77.5532L71.4803 78.3932L68.2246 87.8484L65.7851 87.0084L66.1693 85.8927C65.1212 86.5612 63.9353 86.6676 62.6116 86.2118C61.3509 85.7777 60.4317 84.9253 59.8539 83.6546C59.293 82.3757 59.2535 81.0366 59.7354 79.6372C60.2172 78.2378 61.0706 77.2132 62.2956 76.5632C63.5376 75.9051 64.7889 75.793 66.0496 76.2271C67.3733 76.6829 68.2423 77.4968 68.6567 78.6689L69.0408 77.5532ZM62.2482 82.6599C62.5705 83.3209 63.1099 83.7816 63.8663 84.0421C64.6228 84.3025 65.3314 84.2716 65.9924 83.9492C66.6703 83.6186 67.1438 83.0624 67.413 82.2808C67.6821 81.4992 67.6492 80.7757 67.3142 80.1104C66.9962 79.4368 66.459 78.9698 65.7025 78.7094C64.9461 78.4489 64.2353 78.4862 63.57 78.8211C62.909 79.1435 62.4439 79.6955 62.1748 80.4771C61.9057 81.2588 61.9301 81.9864 62.2482 82.6599ZM79.0406 80.7003C80.0743 81.0562 80.8059 81.6959 81.2353 82.6194C81.6774 83.5472 81.6878 84.6225 81.2668 85.8454L79.2678 91.6508L76.8284 90.8109L78.7232 85.308C78.9402 84.6776 78.935 84.1399 78.7074 83.695C78.4843 83.2374 78.089 82.9109 77.5217 82.7156C76.8914 82.4985 76.3198 82.5203 75.807 82.7809C75.2942 83.0415 74.9033 83.5626 74.6342 84.3442L72.8761 89.45L70.4366 88.61L73.6923 79.1548L76.1318 79.9948L75.7671 81.0538C76.6635 80.3753 77.7547 80.2575 79.0406 80.7003Z" fill="black"/>
<g clip-path="url(#clip0_1_256)">
<path d="M103.487 85.6475L145.214 100.827L141.893 109.955L100.167 94.7751L103.487 85.6475Z" fill="#E6E7E8"/>
<path d="M142.252 88.6758L113.565 78.2397C109.244 76.6678 105.877 79.0788 104.436 83.0395L103.487 85.6474L145.214 100.827L146.162 98.2194C147.603 94.2587 146.572 90.2477 142.252 88.6758Z" fill="#FF9933"/>
<path d="M99.2178 97.3829C97.7769 101.344 98.8078 105.355 103.128 106.927L131.815 117.363C136.136 118.935 139.503 116.524 140.944 112.563L141.893 109.955L100.167 94.775L99.2178 97.3829Z" fill="#128807"/>
<path fill-rule="evenodd" clip-rule="evenodd" d="M124.414 93.6911C125.247 93.9941 125.972 94.5375 126.496 95.2523C127.02 95.9672 127.32 96.8215 127.359 97.7071C127.397 98.5927 127.172 99.4698 126.712 100.227C126.252 100.985 125.577 101.589 124.773 101.963C123.97 102.337 123.073 102.465 122.197 102.329C121.321 102.194 120.505 101.801 119.852 101.202C119.199 100.602 118.739 99.8225 118.529 98.9612C118.319 98.0999 118.37 97.1958 118.674 96.3632C119.082 95.2485 119.916 94.3412 120.992 93.8402C122.068 93.3392 123.299 93.2856 124.414 93.6911ZM120.944 94.4922C120.987 94.6007 120.968 94.6935 120.893 94.7496C120.86 94.7762 120.819 94.7906 120.777 94.7901C120.744 94.7903 120.712 94.7827 120.683 94.7678C120.655 94.7529 120.63 94.7312 120.611 94.7046C120.439 94.8257 120.277 94.9609 120.127 95.1087C120.202 95.209 120.205 95.3017 120.14 95.3792C120.106 95.4183 120.058 95.4427 120.006 95.447C119.954 95.4514 119.903 95.4355 119.863 95.4026C119.782 95.4795 119.534 95.8381 119.502 95.9211C119.542 95.9458 119.572 95.983 119.588 96.0268C119.605 96.0714 119.604 96.1207 119.585 96.1646C119.528 96.2826 119.434 96.3073 119.317 96.2699C119.255 96.3812 119.114 96.777 119.104 96.8613C119.221 96.9186 119.267 96.9958 119.243 97.0929C119.221 97.1985 119.149 97.2461 119.015 97.2491C118.979 97.4556 118.96 97.6641 118.959 97.8746C119.01 97.8776 119.058 97.8971 119.097 97.9301C119.134 97.9649 119.157 98.0101 119.159 98.0617C119.162 98.1024 119.152 98.1404 119.13 98.1759C119.113 98.2023 119.091 98.2244 119.064 98.2407C119.038 98.2569 119.008 98.2667 118.977 98.2695C118.998 98.4825 119.032 98.6884 119.088 98.8903C119.208 98.8771 119.293 98.9211 119.326 99.0146C119.342 99.0538 119.343 99.097 119.33 99.137C119.321 99.1669 119.305 99.1942 119.284 99.2167C119.262 99.2392 119.236 99.2561 119.206 99.2662C119.281 99.4656 119.37 99.6568 119.474 99.8397C119.586 99.7958 119.679 99.8163 119.736 99.8975C119.762 99.9345 119.774 99.9747 119.771 100.018C119.769 100.049 119.76 100.078 119.745 100.105C119.73 100.132 119.709 100.155 119.684 100.172C119.808 100.345 119.943 100.506 120.09 100.655C120.195 100.583 120.284 100.579 120.358 100.643C120.391 100.67 120.414 100.706 120.426 100.746C120.438 100.81 120.424 100.869 120.382 100.924C120.545 101.059 120.716 101.178 120.899 101.284C120.977 101.188 121.063 101.16 121.149 101.199C121.189 101.217 121.221 101.243 121.244 101.283C121.274 101.342 121.276 101.402 121.249 101.466C121.444 101.553 121.641 101.625 121.841 101.681C121.901 101.561 121.974 101.516 122.081 101.538C122.121 101.547 122.157 101.569 122.183 101.601C122.203 101.623 122.217 101.65 122.224 101.679C122.232 101.708 122.233 101.738 122.228 101.767C122.438 101.803 122.647 101.821 122.855 101.823C122.884 101.694 122.941 101.631 123.038 101.623C123.072 101.621 123.107 101.628 123.139 101.643C123.172 101.657 123.198 101.68 123.215 101.71C123.232 101.739 123.243 101.771 123.258 101.805C123.466 101.786 123.672 101.75 123.874 101.697C123.846 101.568 123.921 101.483 123.991 101.458C124.016 101.449 124.043 101.445 124.069 101.446C124.095 101.447 124.121 101.453 124.145 101.464C124.169 101.475 124.191 101.491 124.209 101.51C124.227 101.53 124.24 101.553 124.249 101.578C124.447 101.503 124.639 101.415 124.821 101.31C124.777 101.199 124.795 101.105 124.877 101.049C124.912 101.023 124.954 101.01 124.997 101.013C125.028 101.014 125.059 101.022 125.086 101.037C125.113 101.052 125.137 101.073 125.154 101.099C125.328 100.976 125.489 100.841 125.639 100.694C125.567 100.595 125.56 100.508 125.62 100.433C125.644 100.399 125.679 100.374 125.719 100.362C125.751 100.353 125.784 100.352 125.816 100.359C125.849 100.365 125.879 100.379 125.905 100.4C125.98 100.324 126.227 99.9747 126.267 99.8829C126.225 99.8581 126.193 99.8193 126.177 99.7734C126.168 99.7502 126.164 99.7255 126.166 99.7008C126.167 99.6761 126.173 99.652 126.184 99.6298C126.202 99.5895 126.233 99.5567 126.272 99.5372C126.3 99.524 126.329 99.5169 126.36 99.5165C126.39 99.516 126.42 99.5221 126.448 99.5345C126.536 99.3432 126.608 99.145 126.663 98.9418C126.543 98.8841 126.501 98.8143 126.521 98.7099C126.527 98.6701 126.547 98.6335 126.576 98.6061C126.599 98.5849 126.627 98.5694 126.657 98.5607C126.687 98.5519 126.718 98.5503 126.749 98.5559C126.786 98.3487 126.805 98.1387 126.805 97.9282C126.677 97.9045 126.615 97.8449 126.605 97.747C126.603 97.7209 126.606 97.6947 126.614 97.6698C126.622 97.6449 126.635 97.6218 126.652 97.602C126.669 97.5822 126.69 97.5659 126.714 97.5542C126.737 97.5425 126.763 97.5355 126.789 97.5338C126.769 97.3238 126.732 97.1159 126.677 96.9123C126.554 96.9243 126.473 96.8815 126.439 96.788C126.424 96.7479 126.423 96.7037 126.437 96.6633C126.446 96.6341 126.462 96.6075 126.483 96.5856C126.505 96.5637 126.531 96.5472 126.56 96.5373C126.486 96.3398 126.397 96.1483 126.294 95.9643C126.176 96.0085 126.085 95.9865 126.03 95.906C126.004 95.8713 125.992 95.8285 125.995 95.7854C125.997 95.7551 126.005 95.7257 126.02 95.6993C126.035 95.6729 126.056 95.6503 126.081 95.633C125.96 95.4606 125.824 95.2985 125.676 95.1484C125.575 95.2197 125.487 95.2253 125.412 95.1651C125.379 95.139 125.354 95.1033 125.342 95.0629C125.334 95.0313 125.334 94.9981 125.341 94.9663C125.348 94.9344 125.363 94.9047 125.384 94.8795C125.223 94.744 125.049 94.6235 124.867 94.5193C124.791 94.6114 124.704 94.6418 124.619 94.605C124.579 94.5882 124.546 94.5595 124.523 94.523C124.507 94.4949 124.498 94.4633 124.497 94.431C124.496 94.3987 124.503 94.3666 124.516 94.3373C124.325 94.2489 124.127 94.1771 123.924 94.1226C123.867 94.2353 123.793 94.2833 123.701 94.2664C123.658 94.2607 123.62 94.2408 123.59 94.2101C123.569 94.1871 123.553 94.1593 123.544 94.129C123.535 94.0987 123.533 94.0667 123.539 94.0355C123.331 94.0001 123.121 93.9816 122.91 93.9803C122.889 94.1033 122.829 94.167 122.734 94.1792C122.693 94.1849 122.654 94.1773 122.616 94.1562C122.587 94.1411 122.563 94.1186 122.545 94.0911C122.528 94.0636 122.518 94.032 122.516 93.9994C122.389 94.0006 121.96 94.0769 121.894 94.1114C121.907 94.2254 121.865 94.3068 121.776 94.3439C121.752 94.3536 121.725 94.3583 121.698 94.3576C121.672 94.3569 121.646 94.3509 121.621 94.3398C121.597 94.3288 121.575 94.313 121.557 94.2934C121.539 94.2737 121.525 94.2507 121.516 94.2255C121.319 94.2998 121.128 94.389 120.944 94.4922Z" fill="#010088"/>
<path fill-rule="evenodd" clip-rule="evenodd" d="M123.553 101.679C123.548 101.668 123.543 101.659 123.54 101.648C123.372 100.93 123.202 100.213 123.031 99.4965L123.024 99.4362C123.01 99.1972 122.999 98.959 122.983 98.72C122.984 98.7083 122.984 98.6965 122.982 98.6849C122.94 98.6853 122.901 98.6888 122.857 98.6896L122.858 98.7276C122.866 98.9574 122.872 99.1867 122.882 99.4169C122.884 99.4785 122.873 99.5378 122.864 99.5982C122.819 99.9207 122.77 100.243 122.726 100.566L122.556 101.718C122.557 101.721 122.556 101.724 122.555 101.727C122.554 101.729 122.551 101.731 122.549 101.733L122.548 101.707C122.568 101.095 122.584 100.482 122.603 99.8694C122.606 99.7494 122.613 99.6322 122.613 99.511C122.614 99.4509 122.628 99.394 122.64 99.3355C122.673 99.172 122.711 99.0085 122.742 98.844C122.751 98.8057 122.76 98.7674 122.767 98.7293L122.776 98.6823C122.736 98.672 122.698 98.6642 122.657 98.6545C122.651 98.6702 122.646 98.6866 122.642 98.7037C122.595 98.903 122.545 99.1018 122.503 99.3022C122.48 99.4117 122.435 99.5115 122.391 99.6137L122.281 99.8734C122.205 100.048 122.131 100.222 122.054 100.396L121.9 100.756L121.638 101.368C121.612 101.424 121.589 101.484 121.562 101.539L121.618 101.336L121.753 100.901L121.869 100.511C121.909 100.378 121.949 100.245 121.989 100.112L122.067 99.8522L122.192 99.4405C122.211 99.3669 122.239 99.2957 122.275 99.2286C122.323 99.1364 122.37 99.0432 122.417 98.9489C122.465 98.8566 122.512 98.7646 122.558 98.6731L122.579 98.6261L122.47 98.5696C122.457 98.5942 122.443 98.6184 122.428 98.6422L122.127 99.209C122.091 99.2838 122.035 99.3443 121.982 99.4072C121.559 99.9461 121.134 100.484 120.709 101.022C120.701 101.031 120.695 101.041 120.683 101.048C120.685 101.04 120.688 101.034 120.693 101.028C120.927 100.646 121.163 100.265 121.4 99.8847L121.867 99.1262L121.899 99.0869C122.059 98.9109 122.216 98.7316 122.377 98.5563C122.384 98.5453 122.393 98.5351 122.403 98.5258L122.311 98.4414C122.302 98.4515 122.291 98.4587 122.283 98.469L121.789 98.9942C121.777 99.0078 121.765 99.0203 121.751 99.0316C121.155 99.4744 120.559 99.9183 119.964 100.363C119.956 100.371 119.946 100.376 119.935 100.379L119.958 100.356L121.581 98.8294C121.596 98.8155 121.611 98.8032 121.629 98.7927L122.228 98.3988C122.24 98.3928 122.248 98.3862 122.26 98.3793C122.235 98.343 122.216 98.3112 122.192 98.2736C122.182 98.2792 122.173 98.2849 122.164 98.2906C121.959 98.4167 121.755 98.543 121.554 98.6695C121.533 98.6807 121.511 98.691 121.489 98.7005C120.808 98.9732 120.128 99.2433 119.444 99.516C119.431 99.5215 119.417 99.5252 119.402 99.5272L119.421 99.5143C120.016 99.1955 120.609 98.8764 121.201 98.5568C121.235 98.5396 121.268 98.5215 121.301 98.5025C121.37 98.4644 121.442 98.4339 121.517 98.4111L122.119 98.213C122.132 98.209 122.143 98.2034 122.158 98.1998L122.12 98.0818L122.084 98.0916L121.399 98.2979C121.373 98.3049 121.347 98.3105 121.32 98.3145C120.596 98.4008 119.868 98.4859 119.142 98.5718C119.128 98.5727 119.115 98.5752 119.101 98.5702L119.132 98.5616L120.55 98.2283C120.798 98.1703 121.045 98.1115 121.291 98.0521L121.35 98.044C121.59 98.0315 121.83 98.0184 122.068 98.0047C122.079 98.0047 122.091 98.0039 122.104 98.0024L122.1 97.8789C122.086 97.8777 122.077 97.8781 122.066 97.8778C121.824 97.885 121.584 97.8943 121.341 97.9004C121.291 97.9008 121.241 97.8914 121.191 97.8843L119.659 97.662C119.466 97.6353 119.269 97.6067 119.076 97.5784C119.068 97.5774 119.061 97.5737 119.055 97.5679C119.111 97.5699 119.166 97.5713 119.221 97.5722C119.91 97.5936 120.599 97.6142 121.287 97.6341C121.341 97.6353 121.394 97.6495 121.446 97.6594L122.068 97.7907L122.107 97.7959L122.136 97.6764L122.037 97.6522L121.626 97.5566L121.397 97.5036C121.379 97.4995 121.361 97.4939 121.345 97.4868L120.939 97.3119L120.699 97.209L120.285 97.0305L119.681 96.7725C119.536 96.7106 119.394 96.6481 119.25 96.5839C119.274 96.5904 119.302 96.596 119.327 96.6053L119.843 96.7604L120.524 96.9655L121.089 97.1353L121.443 97.2406C121.458 97.246 121.472 97.2522 121.486 97.2591L121.866 97.4514L122.136 97.5878L122.164 97.5982C122.181 97.5622 122.2 97.5292 122.218 97.4902C122.196 97.4762 122.17 97.4623 122.148 97.4489C121.983 97.3614 121.818 97.2732 121.654 97.1845L121.551 97.1307C121.532 97.1207 121.514 97.109 121.497 97.0957C121.041 96.737 120.588 96.3781 120.132 96.0196L119.753 95.7192C119.742 95.711 119.732 95.7013 119.724 95.6903L119.808 95.7415L120.831 96.3742C121.104 96.5438 121.383 96.7144 121.656 96.8847L121.702 96.92C121.881 97.078 122.057 97.238 122.237 97.398L122.264 97.4218C122.291 97.3918 122.319 97.3615 122.349 97.3308C122.34 97.3207 122.331 97.3113 122.321 97.3024C122.146 97.1392 121.971 96.9753 121.797 96.8106L121.759 96.7694C121.314 96.174 120.871 95.5775 120.425 94.9811C120.419 94.9742 120.415 94.9652 120.415 94.9558L120.433 94.9774C120.909 95.4828 121.386 95.9883 121.864 96.4938C121.943 96.5771 122.016 96.6693 122.078 96.7665C122.18 96.9284 122.286 97.0866 122.391 97.2475L122.413 97.2782L122.517 97.2136L122.5 97.1822L122.122 96.5728C122.109 96.5521 122.099 96.5312 122.09 96.5102C121.816 95.8249 121.543 95.1398 121.27 94.455C121.266 94.447 121.263 94.4383 121.262 94.4293C121.276 94.4356 121.278 94.4466 121.281 94.4546C121.47 94.8039 121.658 95.1528 121.845 95.5015L122.331 96.4031C122.339 96.4204 122.347 96.438 122.354 96.4557L122.575 97.1283C122.581 97.1438 122.585 97.159 122.591 97.179L122.711 97.141C122.709 97.1297 122.704 97.1197 122.702 97.1096C122.634 96.8814 122.564 96.6531 122.494 96.4249C122.488 96.3988 122.483 96.3723 122.48 96.3457C122.392 95.6148 122.305 94.8843 122.219 94.1542C122.217 94.1403 122.215 94.129 122.218 94.1162L122.227 94.1401L122.523 95.4009L122.733 96.2896C122.74 96.3229 122.747 96.3582 122.747 96.392C122.761 96.6246 122.774 96.8569 122.786 97.089C122.788 97.0996 122.789 97.1117 122.79 97.1253L122.915 97.1197L122.913 97.0881C122.906 96.8553 122.899 96.6227 122.891 96.3904C122.887 96.3306 122.898 96.2741 122.906 96.2166C122.959 95.851 123.014 95.4858 123.067 95.1196C123.116 94.767 123.168 94.4181 123.219 94.0646C123.218 94.063 123.22 94.0596 123.225 94.0544L123.219 94.2494C123.2 94.9389 123.179 95.6283 123.156 96.3177C123.155 96.3721 123.142 96.4271 123.131 96.4799C123.092 96.6597 123.055 96.8406 123.019 97.0225C123.012 97.0567 123.002 97.09 122.995 97.1283L123.114 97.1552L123.129 97.1122L123.229 96.6854C123.248 96.6023 123.269 96.5221 123.286 96.4405C123.299 96.386 123.318 96.3332 123.343 96.2833L123.454 96.0241L123.68 95.5043C123.72 95.4113 123.757 95.3155 123.798 95.2225C123.851 95.1011 123.904 94.9791 123.956 94.8563C123.995 94.7671 124.033 94.6775 124.07 94.5877C124.115 94.4824 124.161 94.378 124.21 94.2745C124.201 94.3045 124.192 94.3353 124.182 94.3671C124.143 94.5011 124.103 94.6352 124.062 94.7694L123.879 95.3789L123.777 95.7214L123.596 96.3141L123.572 96.4019C123.553 96.4806 123.51 96.5501 123.477 96.6227L123.311 96.9492C123.281 97.0114 123.247 97.0724 123.216 97.1347C123.209 97.1499 123.203 97.1668 123.191 97.1841C123.229 97.2047 123.265 97.2219 123.303 97.2418C123.319 97.2159 123.331 97.1907 123.346 97.165C123.454 96.9647 123.562 96.7635 123.669 96.5612C123.677 96.5465 123.69 96.5326 123.699 96.5177C124.144 95.9574 124.585 95.395 125.028 94.833C125.05 94.8074 125.068 94.7822 125.094 94.7601L125.071 94.8018C124.808 95.2288 124.541 95.6531 124.279 96.079C124.158 96.2795 124.035 96.4795 123.911 96.6789C123.901 96.6956 123.889 96.7108 123.875 96.7242L123.395 97.2618C123.387 97.2689 123.379 97.2776 123.371 97.288C123.405 97.3172 123.431 97.3438 123.464 97.3726L123.49 97.3467L123.977 96.8249C123.995 96.8078 124.011 96.7904 124.031 96.7785L125.8 95.4568C125.81 95.4503 125.819 95.4433 125.833 95.4408C125.825 95.4485 125.818 95.456 125.809 95.4632L124.198 96.981C124.181 96.9953 124.165 97.0085 124.148 97.0204L123.546 97.4134L123.513 97.4349L123.58 97.541L123.609 97.5235C123.811 97.3976 124.013 97.2718 124.217 97.1461C124.24 97.1318 124.264 97.1198 124.289 97.1101C124.971 96.8372 125.654 96.5651 126.337 96.2938C126.348 96.2897 126.356 96.2846 126.371 96.2857L126.347 96.3004C126.05 96.4618 125.752 96.6219 125.453 96.7807C125.097 96.9719 124.741 97.1634 124.386 97.3553C124.367 97.3645 124.348 97.3722 124.33 97.3783L123.648 97.6021L123.615 97.6135C123.628 97.6538 123.639 97.6918 123.654 97.7326L123.689 97.7219L124.381 97.5127L124.434 97.501C125.173 97.4145 125.91 97.3275 126.646 97.2398C126.657 97.238 126.668 97.2388 126.679 97.2422C126.644 97.2508 126.61 97.2588 126.575 97.2664L124.482 97.7606C124.463 97.7646 124.444 97.7674 124.425 97.7689C124.185 97.7832 123.943 97.7955 123.704 97.8099L123.666 97.8108C123.67 97.8538 123.67 97.8928 123.673 97.935L123.706 97.9362C123.945 97.9295 124.185 97.9184 124.425 97.9151C124.485 97.9132 124.546 97.925 124.607 97.9339L125.64 98.0837C125.961 98.1311 126.279 98.1762 126.601 98.2231C126.63 98.2267 126.659 98.2309 126.689 98.2358C126.696 98.2384 126.703 98.2395 126.712 98.2472L126.61 98.244C125.897 98.2233 125.184 98.2013 124.472 98.178C124.418 98.1774 124.363 98.1625 124.31 98.1521L123.865 98.059L123.705 98.0252L123.666 98.0182C123.656 98.0581 123.649 98.0961 123.636 98.1388L123.738 98.1642L124.106 98.2505C124.198 98.2715 124.294 98.2925 124.389 98.3175C124.431 98.3292 124.472 98.3483 124.513 98.3656C124.601 98.4021 124.688 98.4424 124.779 98.4802L125.295 98.7031L125.527 98.8025L126.053 99.0286C126.178 99.0827 126.307 99.1362 126.43 99.1901C126.461 99.2032 126.491 99.2174 126.521 99.2327L126.423 99.2059L126.021 99.0839L125.522 98.9349L125.147 98.8205C124.973 98.7692 124.797 98.7162 124.622 98.6651C124.527 98.6349 124.427 98.6089 124.332 98.5752C124.278 98.5568 124.225 98.5257 124.174 98.5006L123.842 98.3325L123.629 98.2249L123.608 98.217C123.59 98.2532 123.572 98.2899 123.553 98.3273L124.207 98.678C124.272 98.7111 124.321 98.7594 124.378 98.8029L126.009 100.09C126.021 100.096 126.031 100.105 126.037 100.117C126.023 100.109 126.008 100.101 125.993 100.093L124.505 99.1718L124.112 98.9285C124.1 98.9196 124.083 98.9077 124.071 98.8951C123.892 98.736 123.713 98.5757 123.533 98.4143L123.508 98.3943L123.422 98.4833L123.451 98.5121C123.626 98.676 123.801 98.84 123.975 99.0042C123.989 99.017 124.002 99.0321 124.015 99.0496L125.337 100.818C125.343 100.828 125.351 100.839 125.354 100.854C125.346 100.847 125.339 100.839 125.333 100.832L124.594 100.049C124.336 99.7739 124.077 99.4984 123.816 99.2224C123.799 99.2051 123.785 99.1857 123.773 99.1646L123.38 98.5653L123.361 98.5378C123.325 98.5588 123.292 98.58 123.255 98.6019L123.273 98.6304C123.397 98.8335 123.524 99.0378 123.649 99.2405C123.663 99.2621 123.675 99.2853 123.685 99.3097L124.504 101.358C124.507 101.368 124.509 101.378 124.508 101.388C124.503 101.378 124.496 101.369 124.49 101.361C124.14 100.709 123.79 100.058 123.438 99.4068C123.43 99.3921 123.424 99.3764 123.42 99.3602L123.193 98.668C123.19 98.6575 123.186 98.6468 123.182 98.6359C123.143 98.6497 123.106 98.6612 123.066 98.6764C123.066 98.6858 123.068 98.6955 123.071 98.7055L123.282 99.401C123.288 99.4214 123.292 99.4419 123.295 99.4626L123.553 101.654C123.556 101.664 123.555 101.675 123.553 101.685L123.551 101.684L123.553 101.679Z" fill="#010088"/>
<path fill-rule="evenodd" clip-rule="evenodd" d="M123.546 101.677L123.555 101.701C123.551 101.701 123.55 101.703 123.546 101.702C123.548 101.693 123.546 101.686 123.548 101.677L123.546 101.677Z" fill="#010088"/>
</g>
<defs>
<clipPath id="clip0_1_256">
<rect width="44.4018" height="44.4018" fill="white" transform="translate(109.18 70) rotate(19.9912)"/>
</clipPath>
</defs>
</svg>
