<svg width="219" height="160" viewBox="0 0 219 160" fill="none" xmlns="http://www.w3.org/2000/svg">
<path d="M15.9527 45.2917C18.2902 38.5032 25.6883 34.8949 32.4768 37.2324L206.452 97.1369C213.241 99.4744 216.849 106.873 214.512 113.661L202.791 147.7C200.454 154.488 193.056 158.097 186.267 155.759L12.2916 95.8545C5.50304 93.5171 1.89474 86.119 4.23222 79.3304L15.9527 45.2917Z" fill="white"/>
<path d="M93.6609 34.9942L72.231 56.4241C66.3982 62.2569 57.6506 62.9456 51.7037 56.9987C45.8709 51.1659 46.629 42.7159 52.5759 36.769L76.6653 12.6795C80.3522 8.99267 86.2877 8.99266 89.9745 12.6795C93.6614 16.3664 93.6614 22.3019 89.9745 25.9887L65.4621 50.5012C63.6245 52.3388 60.6451 52.3388 58.8075 50.5012C56.9699 48.6636 56.9699 45.6842 58.8075 43.8466L80.6604 21.9937" stroke="black" stroke-width="2" stroke-linecap="round"/>
<path d="M79.9062 78.2159L81.6648 78.8215L77.1069 92.0588L75.3482 91.4532L79.9062 78.2159ZM87.8253 84.8982C88.9348 85.2802 89.702 85.9393 90.1271 86.8753C90.5565 87.7988 90.565 88.8593 90.1526 90.057L88.1536 95.8625L86.5084 95.296L88.4749 89.585C88.7397 88.816 88.7357 88.1519 88.4629 87.5926C88.1944 87.0207 87.6946 86.6089 86.9634 86.3571C86.144 86.075 85.3931 86.1055 84.7109 86.4487C84.033 86.7794 83.5117 87.4742 83.147 88.5332L81.4215 93.5444L79.7763 92.9779L83.032 83.5227L84.6772 84.0892L84.2084 85.4508C85.2455 84.6093 86.4512 84.4251 87.8253 84.8982ZM102.837 86.1117L104.482 86.6782L99.9245 99.9155L98.2792 99.349L98.8392 97.7227C97.59 98.6886 96.1838 98.9025 94.6205 98.3642C93.2968 97.9084 92.3334 97.0408 91.7304 95.7615C91.1318 94.4695 91.0712 93.1301 91.5487 91.7434C92.0262 90.3566 92.8964 89.3448 94.1592 88.7079C95.4263 88.0584 96.7218 87.9615 98.0455 88.4173C99.6088 88.9556 100.585 89.9899 100.975 91.5201L102.837 86.1117ZM95.3755 96.8473C96.3336 97.1772 97.2449 97.1314 98.1092 96.7099C98.9779 96.2757 99.5772 95.5795 99.9071 94.6214C100.237 93.6633 100.191 92.752 99.7696 91.8877C99.3524 91.0108 98.6647 90.4073 97.7066 90.0774C96.7611 89.7519 95.854 89.8062 94.9853 90.2403C94.1209 90.6619 93.5238 91.3517 93.1939 92.3099C92.864 93.268 92.9077 94.1855 93.3249 95.0625C93.7464 95.9268 94.43 96.5218 95.3755 96.8473ZM107.097 89.8842C106.782 89.7757 106.554 89.5774 106.414 89.2893C106.273 89.0012 106.255 88.7058 106.359 88.4033C106.463 88.1007 106.66 87.8792 106.948 87.7386C107.24 87.5855 107.544 87.5632 107.859 87.6717C108.162 87.7759 108.381 87.9784 108.517 88.2791C108.658 88.5672 108.676 88.8625 108.572 89.1651C108.468 89.4677 108.271 89.6892 107.983 89.8297C107.695 89.9702 107.4 89.9884 107.097 89.8842ZM102.417 100.774L105.673 91.3186L107.318 91.8851L104.062 101.34L102.417 100.774ZM117.657 95.445L119.302 96.0115L116.046 105.467L114.401 104.9L114.961 103.274C113.712 104.24 112.306 104.454 110.742 103.915C109.419 103.46 108.455 102.592 107.852 101.313C107.254 100.021 107.193 98.6813 107.671 97.2946C108.148 95.9078 109.018 94.896 110.281 94.2591C111.548 93.6096 112.844 93.5127 114.167 93.9685C115.731 94.5068 116.707 95.5411 117.097 97.0713L117.657 95.445ZM111.497 102.399C112.455 102.728 113.367 102.683 114.231 102.261C115.1 101.827 115.699 101.131 116.029 100.173C116.359 99.2145 116.313 98.3032 115.891 97.4389C115.474 96.562 114.787 95.9585 113.828 95.6286C112.883 95.303 111.976 95.3574 111.107 95.7915C110.243 96.2131 109.646 96.9029 109.316 97.8611C108.986 98.8192 109.029 99.7367 109.447 100.614C109.868 101.478 110.552 102.073 111.497 102.399ZM126.588 98.2453C127.697 98.6273 128.465 99.2863 128.89 100.222C129.319 101.146 129.328 102.206 128.915 103.404L126.916 109.209L125.271 108.643L127.237 102.932C127.502 102.163 127.498 101.499 127.225 100.94C126.957 100.368 126.457 99.9559 125.726 99.7041C124.907 99.422 124.156 99.4525 123.473 99.7958C122.796 100.126 122.274 100.821 121.91 101.88L120.184 106.891L118.539 106.325L121.795 96.8698L123.44 97.4363L122.971 98.7978C124.008 97.9563 125.214 97.7721 126.588 98.2453Z" fill="black"/>
</svg>
