<svg width="53" height="53" viewBox="0 0 53 53" fill="none" xmlns="http://www.w3.org/2000/svg">
<g clip-path="url(#clip0_238_2507)">
<path d="M34.0628 46.4297L7.65723 20.0175L20.0145 7.66351L46.4201 34.0766L34.0628 46.4297Z" fill="#FFCE31"/>
<path d="M3.80938 2.23597L2.23594 3.80941C-0.745313 6.79066 -0.745313 11.5938 2.23594 14.6578L7.61875 20.0407L20.0406 7.61878L14.6578 2.23597C11.6766 -0.745282 6.79063 -0.745282 3.80938 2.23597Z" fill="#ED4C5C"/>
<path d="M11.022 23.3681L7.625 19.9727L19.9806 7.61712L23.3768 11.0124L11.022 23.3681Z" fill="#93A2AA"/>
<path d="M12.3102 22.0795L8.91406 18.6842L18.6346 8.96281L22.0299 12.3598L12.3102 22.0795Z" fill="#C7D3D8"/>
<path d="M34.0361 46.4578L48.1143 51.8406L51.8408 48.114L46.458 34.0359L34.0361 46.4578Z" fill="#FED0AC"/>
<path d="M50.5982 52.7516C52.5857 53.4969 53.4967 52.5031 52.7514 50.5156L50.1842 43.725L43.8076 50.1016L50.5982 52.7516Z" fill="#333333"/>
<path d="M34.0979 46.4661L11.0264 23.3945L15.1256 19.2953L38.1972 42.3669L34.0979 46.4661Z" fill="#FFDF85"/>
<path d="M42.3518 38.1732L19.2803 15.1017L23.3795 11.0024L46.4511 34.074L42.3518 38.1732Z" fill="#FF8736"/>
</g>
<defs>
<clipPath id="clip0_238_2507">
<rect width="53" height="53" fill="white" transform="matrix(0 -1 1 0 0 53)"/>
</clipPath>
</defs>
</svg>
