<svg width="88" height="89" viewBox="0 0 88 89" fill="none" xmlns="http://www.w3.org/2000/svg">
<path d="M43.5938 14.5313C27.187 14.5313 16.9318 15.5659 10.9624 16.5192C5.41919 17.4027 1.66238 21.8861 1.12763 27.2277C0.590938 32.5888 0 40.8813 0 51.3438C0 61.8082 0.590938 70.0988 1.12763 75.4599C1.66044 80.7996 5.41919 85.283 10.9624 86.1684C16.9299 87.1217 27.187 88.1563 43.5938 88.1563C60.0005 88.1563 70.2557 87.1217 76.2251 86.1684C81.7683 85.2849 85.5251 80.8016 86.0599 75.4599C86.5966 70.0969 87.1875 61.8082 87.1875 51.3438C87.1875 40.8794 86.5966 32.5888 86.0599 27.2277C85.5271 21.888 81.7683 17.4046 76.2251 16.5192C70.2576 15.5659 60.0005 14.5313 43.5938 14.5313Z" fill="#8FBFFA"/>
<path fill-rule="evenodd" clip-rule="evenodd" d="M38.2849 8.14533C39.6062 7.93801 41.4042 7.75008 43.5936 7.75008C45.783 7.75008 47.5829 7.93608 48.9023 8.14533C49.4623 8.23251 50.061 8.63551 50.4175 9.45701C51.0568 10.9373 51.7892 12.774 52.3976 14.6379C55.3697 14.7154 58.0861 14.8258 60.5622 14.9634C59.7427 11.7646 58.4697 8.5522 57.532 6.38414C56.2571 3.43139 53.6085 1.03858 50.1075 0.488326C47.9519 0.159198 45.7742 -0.00403075 43.5936 7.55782e-05C40.9625 7.55782e-05 38.7615 0.224826 37.0817 0.488326C33.5806 1.03858 30.932 3.43333 29.6572 6.38414C28.7213 8.55414 27.4465 11.7646 26.625 14.9634C29.1011 14.8258 31.8175 14.7135 34.7915 14.6379C35.3999 12.774 36.1323 10.9373 36.7717 9.45701C37.1262 8.63551 37.7269 8.23251 38.2849 8.14533ZM39.1354 70.4476C37.3142 70.2015 36.142 68.6399 36.0742 66.8012C36.0102 65.0478 35.9385 62.4903 35.892 59.0454C33.3062 59.0141 30.7207 58.9534 28.1362 58.8633C26.2975 58.7955 24.7359 57.6233 24.4899 55.802C24.2987 54.3238 24.208 52.8343 24.2186 51.3438C24.2186 49.4877 24.3368 48.0133 24.4899 46.8856C24.7359 45.0644 26.2975 43.8922 28.1362 43.8244C29.8897 43.7605 32.4472 43.6888 35.892 43.6423C35.9385 40.1974 36.0102 37.6399 36.0742 35.8864C36.142 34.0478 37.3142 32.4861 39.1354 32.2401C40.263 32.087 41.7375 31.9688 43.5936 31.9688C45.4497 31.9688 46.9242 32.087 48.0518 32.2401C49.873 32.4861 51.0452 34.0478 51.113 35.8864C51.177 37.6399 51.2487 40.1974 51.2952 43.6423C54.74 43.6888 57.2975 43.7605 59.051 43.8244C60.8897 43.8922 62.4513 45.0644 62.6974 46.8856C62.8504 48.0133 62.9686 49.4877 62.9686 51.3438C62.9686 53.2 62.8504 54.6744 62.6974 55.802C62.4513 57.6233 60.8897 58.7955 59.051 58.8633C57.2975 58.9272 54.74 58.9989 51.2952 59.0454C51.2639 61.6313 51.2032 64.2167 51.113 66.8012C51.0452 68.6399 49.873 70.2015 48.0518 70.4476C46.9242 70.6006 45.4497 70.7188 43.5936 70.7188C41.7375 70.7188 40.263 70.6006 39.1354 70.4476Z" fill="#2859C5"/>
</svg>
